<svg id="dinner-table" xmlns="http://www.w3.org/2000/svg" width="19" height="19" viewBox="0 0 19 19">
  <path id="Path_32" data-name="Path 32" d="M203.286,3.24V4.9h-.155a.557.557,0,0,0-.528.381l-.55,1.649a1.277,1.277,0,0,0-.066.4v.006a.538.538,0,0,0,.541.529h2.629a.538.538,0,0,0,.541-.529V7.332a1.277,1.277,0,0,0-.066-.4l-.55-1.649a.557.557,0,0,0-.528-.381H204.4V3.24c.557-.366,1.453-1.092,1.453-1.972a2.143,2.143,0,0,0-4.02,0c0,.88.9,1.606,1.453,1.972Z" transform="translate(-194.343)" fill="#222"/>
  <path id="Path_33" data-name="Path 33" d="M482,429.6a.557.557,0,0,0,1.113,0V427H482Z" transform="translate(-464.113 -411.154)" fill="#222"/>
  <path id="Path_34" data-name="Path 34" d="M362,429.6a.557.557,0,0,0,1.113,0V427H362Z" transform="translate(-348.566 -411.154)" fill="#222"/>
  <path id="Path_35" data-name="Path 35" d="M367.01,182a.557.557,0,0,0-.557.557v5.2h-3.34A1.113,1.113,0,0,0,362,188.865v1.113h5.566v-7.422A.557.557,0,0,0,367.01,182Z" transform="translate(-348.566 -175.246)" fill="#222"/>
  <path id="Path_36" data-name="Path 36" d="M4.453,187.752H1.113v-5.2a.557.557,0,0,0-1.113,0v7.422H5.566v-1.113A1.113,1.113,0,0,0,4.453,187.752Z" transform="translate(0 -175.246)" fill="#222"/>
  <path id="Path_37" data-name="Path 37" d="M0,429.6a.557.557,0,0,0,1.113,0V427H0Z" transform="translate(0 -411.154)" fill="#222"/>
  <path id="Path_38" data-name="Path 38" d="M120,429.6a.557.557,0,0,0,1.113,0V427H120Z" transform="translate(-115.547 -411.154)" fill="#222"/>
  <path id="Path_39" data-name="Path 39" d="M349.335,124.667v.673h1.113v-.673a1.393,1.393,0,0,0,.835-1.275v-.835a.557.557,0,0,0-.557-.557h-1.67a.557.557,0,0,0-.557.557v.835A1.393,1.393,0,0,0,349.335,124.667Z" transform="translate(-335.567 -117.473)" fill="#222"/>
  <path id="Path_40" data-name="Path 40" d="M89.335,124.667v.673h1.113v-.673a1.393,1.393,0,0,0,.835-1.275v-.835a.557.557,0,0,0-.557-.557h-1.67a.557.557,0,0,0-.557.557v.835A1.393,1.393,0,0,0,89.335,124.667Z" transform="translate(-85.216 -117.473)" fill="#222"/>
  <path id="Path_41" data-name="Path 41" d="M89.719,250.906H88.606v-3.379a2.428,2.428,0,0,1,1.148-2.054l3.968-2.442A.557.557,0,0,0,93.43,242H81.555a.557.557,0,0,0-.292,1.031l3.968,2.442a2.428,2.428,0,0,1,1.148,2.054v3.379H85.266a.557.557,0,1,0,0,1.113h4.453a.557.557,0,1,0,0-1.113Z" transform="translate(-77.993 -233.02)" fill="#222"/>
</svg>
