<svg class="ds_logo" xmlns="http://www.w3.org/2000/svg" width="124.37" height="29.914" viewBox="0 0 124.37 29.914"><defs>
<style>
.a{fill:#fff;}.b{fill:#8cc63f;}.c{fill:#d82b2b;}
html:not(.dark) .a{
    fill:#000 !important;
}
</style>
</defs><g transform="translate(0 0)"><g transform="translate(40.349 6.143)"><path class="a" d="M830.248,388.312c4.478,0,6.861,2.215,6.861,6.765v3.144c0,4.55-2.382,6.765-6.861,6.765h-5.717V388.312Zm-2.573,13.816H830.3c2.692,0,3.668-1.382,3.668-3.812v-3.335c0-2.43-.977-3.812-3.668-3.812h-2.621Z" transform="translate(-824.531 -387.693)"/><path class="a" d="M891.571,385.192a2.05,2.05,0,1,1-2.12,2.049A2.022,2.022,0,0,1,891.571,385.192Zm1.5,17.294h-3V390.671h3Z" transform="translate(-876.563 -385.192)"/><path class="a" d="M915.2,412.022v1.906h.334c.476-1.1,1.572-2.1,3.74-2.1,2.621,0,4.6,1.882,4.6,4.955v7.051h-3v-6.765a2.408,2.408,0,0,0-2.668-2.62c-1.93,0-2.954,1.191-2.954,3.287v6.1h-3V412.022Z" transform="translate(-894.836 -406.543)"/><path class="a" d="M980.221,411.111c3.43,0,5.741,2.406,5.741,5.955v1.167h-8.6a2.875,2.875,0,0,0,2.954,2.787,3.1,3.1,0,0,0,2.954-1.763l2.454,1.429a5.854,5.854,0,0,1-5.36,2.906,6,6,0,0,1-6.075-6.337A5.813,5.813,0,0,1,980.221,411.111Zm2.692,5.026a2.6,2.6,0,0,0-2.716-2.454,2.646,2.646,0,0,0-2.811,2.454Z" transform="translate(-944.559 -405.966)"/><path class="a" d="M1041.807,411.111a7.584,7.584,0,0,1,5.741,2.74l-2.168,1.715a4.877,4.877,0,0,0-3.668-2.025c-1.12,0-1.739.476-1.739,1.191,0,.858.881,1.072,2.12,1.215l.4.047c3.788.453,5.193,1.43,5.193,3.6,0,2.311-2.168,4-5.312,4a6.952,6.952,0,0,1-6.17-3.335l2.382-1.5a4.261,4.261,0,0,0,3.859,2.358c1.215,0,2.334-.524,2.334-1.453,0-.881-1.215-1.048-2.5-1.191l-.4-.048c-3.311-.381-4.812-1.453-4.812-3.645S1039.068,411.111,1041.807,411.111Z" transform="translate(-994.187 -405.966)"/><path class="a" d="M1106.318,424.607V422.7h-.333c-.477,1.1-1.572,2.1-3.74,2.1-2.62,0-4.6-1.882-4.6-4.955v-7.051h3v6.765a2.408,2.408,0,0,0,2.668,2.62c1.929,0,2.954-1.191,2.954-3.287v-6.1h3v11.815Z" transform="translate(-1043.428 -407.313)"/><path class="a" d="M1163.481,414.314h.334c.453-1.31,1.453-1.763,2.954-1.763h1.143v2.716h-1.763a2.342,2.342,0,0,0-2.62,2.477v6.67h-3V412.6h2.954Z" transform="translate(-1093.825 -407.12)"/><path class="a" d="M1204.929,393.172v-2.43a2.342,2.342,0,0,1,2.382-2.43h3.1v2.573H1208.6c-.429,0-.667.238-.667.715v1.572h3.1v2.572h-3.1v9.243h-3v-9.243h-3v-2.572Z" transform="translate(-1127.006 -387.693)"/></g><g transform="translate(0 0)"><path class="b" d="M651.117,365.273a15.214,15.214,0,1,0-18.8,18.8,2.252,2.252,0,0,0,.614.086,2.288,2.288,0,0,0,.6-4.49A10.645,10.645,0,1,1,646.714,366.5a2.288,2.288,0,0,0,4.029.749A2.234,2.234,0,0,0,651.117,365.273Z" transform="translate(-621.282 -354.248)"/><path class="c" d="M718.641,448.342l-1.682-1.682a15.079,15.079,0,0,0,2.235-4.378,2.23,2.23,0,0,0-.331-2.012,2.287,2.287,0,0,0-4.032.659A10.645,10.645,0,0,1,708,447.763a2.288,2.288,0,0,0,.671,4.47,2.246,2.246,0,0,0,.683-.107,15.083,15.083,0,0,0,4.378-2.235l1.682,1.682a2.285,2.285,0,0,0,3.231-3.231Zm-2.084-1.654a.394.394,0,0,0,.01.065A.394.394,0,0,1,716.557,446.688Z" transform="translate(-689.499 -422.438)"/><ellipse class="b" cx="6.751" cy="6.741" rx="6.751" ry="6.741" transform="translate(8.399 8.518)"/></g></g></svg>
