<svg xmlns="http://www.w3.org/2000/svg" width="13.716" height="16.256" viewBox="0 0 13.716 16.256">
  <path id="Icon_metro-spoon-fork" data-name="Icon metro-spoon-fork" d="M6.583,1.928A3.331,3.331,0,0,0,3.535,5.484,3.489,3.489,0,0,0,5.879,8.945l-.5,8.225a.946.946,0,0,0,.954,1.014h.508A.946.946,0,0,0,7.79,17.17l-.5-8.225A3.489,3.489,0,0,0,9.631,5.484,3.331,3.331,0,0,0,6.583,1.928Zm10.244,0-.847,5.08h-.635l-.423-5.08H14.5l-.423,5.08H13.44l-.847-5.08h-.423v6.6a.508.508,0,0,0,.508.508H14l-.5,8.13a.946.946,0,0,0,.954,1.014h.508a.946.946,0,0,0,.954-1.014l-.5-8.13h1.323a.508.508,0,0,0,.508-.508v-6.6Z" transform="translate(-3.535 -1.928)" fill="#fff"/>
</svg>
