<svg xmlns="http://www.w3.org/2000/svg" width="20.464" height="20.502" viewBox="0 0 20.464 20.502">
  <path id="Icon_feather-phone" data-name="Icon feather-phone" d="M22.13,17.225v2.86a1.907,1.907,0,0,1-2.078,1.907,18.868,18.868,0,0,1-8.228-2.927A18.592,18.592,0,0,1,6.1,13.345,18.868,18.868,0,0,1,3.176,5.078,1.907,1.907,0,0,1,5.073,3h2.86A1.907,1.907,0,0,1,9.84,4.64a12.242,12.242,0,0,0,.667,2.679,1.907,1.907,0,0,1-.429,2.012L8.868,10.542a15.255,15.255,0,0,0,5.721,5.721L15.8,15.051a1.907,1.907,0,0,1,2.012-.429,12.242,12.242,0,0,0,2.679.667,1.907,1.907,0,0,1,1.64,1.935Z" transform="translate(-2.417 -2.25)" fill="none" stroke="#222" stroke-linecap="round" stroke-linejoin="round" stroke-width="1.5"/>
</svg>
