<svg xmlns="http://www.w3.org/2000/svg" width="16.031" height="19" viewBox="0 0 16.031 19">
  <path id="Icon_metro-spoon-fork" data-name="Icon metro-spoon-fork" d="M7.1,1.928c-1.968,0-3.562,1.861-3.562,4.156a4.078,4.078,0,0,0,2.741,4.045l-.59,9.614A1.106,1.106,0,0,0,6.8,20.928h.594a1.106,1.106,0,0,0,1.115-1.185l-.59-9.614A4.078,4.078,0,0,0,10.66,6.084C10.66,3.789,9.065,1.928,7.1,1.928Zm11.974,0-.99,5.937h-.742l-.495-5.937H16.35l-.495,5.937h-.742l-.99-5.937h-.495V9.647a.594.594,0,0,0,.594.594h1.546l-.583,9.5A1.106,1.106,0,0,0,16.3,20.928h.594a1.106,1.106,0,0,0,1.115-1.185l-.583-9.5h1.546a.594.594,0,0,0,.594-.594V1.928Z" transform="translate(-3.535 -1.928)" fill="#222"/>
</svg>
