<svg xmlns="http://www.w3.org/2000/svg" width="27.093" height="16.256" viewBox="0 0 27.093 16.256">
  <path id="Icon_awesome-money-bill" data-name="Icon awesome-money-bill" d="M25.738,4.5H1.355A1.355,1.355,0,0,0,0,5.855V19.4a1.355,1.355,0,0,0,1.355,1.355H25.738A1.355,1.355,0,0,0,27.093,19.4V5.855A1.355,1.355,0,0,0,25.738,4.5ZM2.032,18.724V16.014a2.709,2.709,0,0,1,2.709,2.709Zm0-9.482V6.532H4.741A2.709,2.709,0,0,1,2.032,9.241Zm11.514,7.45c-1.871,0-3.387-1.82-3.387-4.064s1.516-4.064,3.387-4.064,3.387,1.819,3.387,4.064S15.416,16.692,13.546,16.692Zm11.514,2.032H22.351a2.709,2.709,0,0,1,2.709-2.709Zm0-9.482a2.709,2.709,0,0,1-2.709-2.709h2.709Z" transform="translate(0 -4.5)" fill="#fcfcfc"/>
</svg>
