<svg width="109" height="109" viewBox="0 0 109 109" fill="none" xmlns="http://www.w3.org/2000/svg">
<path d="M46.6557 64.0159L34.8561 52.2164C33.8615 51.2218 32.6409 50.7245 31.1942 50.7245C29.7475 50.7245 28.4817 51.267 27.3967 52.352C26.4021 53.3466 25.9048 54.6125 25.9048 56.1496C25.9048 57.6867 26.4021 58.9525 27.3967 59.9471L42.8581 75.4086C43.8527 76.4032 45.1186 76.9005 46.6557 76.9005C48.1928 76.9005 49.4586 76.4032 50.4532 75.4086L81.2406 44.6213C82.2352 43.6267 82.7325 42.406 82.7325 40.9594C82.7325 39.5127 82.19 38.2468 81.1049 37.1618C80.1103 36.1672 78.8445 35.6699 77.3074 35.6699C75.7703 35.6699 74.5044 36.1672 73.5098 37.1618L46.6557 64.0159ZM54.2508 108.502C46.7461 108.502 39.6935 107.077 33.093 104.227C26.4925 101.38 20.7509 97.5158 15.8684 92.6332C10.9858 87.7507 7.12132 82.0091 4.27496 75.4086C1.42499 68.8081 0 61.7555 0 54.2508C0 46.7461 1.42499 39.6935 4.27496 33.093C7.12132 26.4925 10.9858 20.7509 15.8684 15.8684C20.7509 10.9858 26.4925 7.11951 33.093 4.26954C39.6935 1.42318 46.7461 0 54.2508 0C61.7555 0 68.8081 1.42318 75.4086 4.26954C82.0091 7.11951 87.7507 10.9858 92.6332 15.8684C97.5158 20.7509 101.38 26.4925 104.227 33.093C107.077 39.6935 108.502 46.7461 108.502 54.2508C108.502 61.7555 107.077 68.8081 104.227 75.4086C101.38 82.0091 97.5158 87.7507 92.6332 92.6332C87.7507 97.5158 82.0091 101.38 75.4086 104.227C68.8081 107.077 61.7555 108.502 54.2508 108.502Z" fill="#8CC63F"/>
</svg>
