<svg width="32" height="31" viewBox="0 0 32 31" fill="none" xmlns="http://www.w3.org/2000/svg">
    <path d="M28.7339 0.125H3.10889C2.42927 0.125 1.77749 0.394977 1.29693 0.875539C0.816364 1.3561 0.546387 2.00788 0.546387 2.6875V28.3125C0.546387 28.9921 0.816364 29.6439 1.29693 30.1245C1.77749 30.605 2.42927 30.875 3.10889 30.875H28.7339C29.4135 30.875 30.0653 30.605 30.5458 30.1245C31.0264 29.6439 31.2964 28.9921 31.2964 28.3125V2.6875C31.2964 2.00788 31.0264 1.3561 30.5458 0.875539C30.0653 0.394977 29.4135 0.125 28.7339 0.125ZM15.9214 5.25C16.3015 5.25 16.6731 5.36272 16.9891 5.57389C17.3052 5.78507 17.5515 6.08523 17.697 6.43641C17.8424 6.78758 17.8805 7.17401 17.8063 7.54681C17.7322 7.91962 17.5491 8.26207 17.2804 8.53085C17.0116 8.79963 16.6691 8.98267 16.2963 9.05682C15.9235 9.13098 15.5371 9.09292 15.1859 8.94746C14.8347 8.80199 14.5346 8.55566 14.3234 8.23961C14.1122 7.92356 13.9995 7.55199 13.9995 7.17188C13.9995 6.66216 14.202 6.17333 14.5624 5.8129C14.9228 5.45248 15.4117 5.25 15.9214 5.25ZM21.0464 25.9102H10.7964V23.0273H14.48V15.6602H12.0776V12.7773H17.3628V23.0273H21.0464V25.9102Z" fill="#B72F2F" />
</svg>