<svg width="36" height="31" viewBox="0 0 36 31" fill="none" xmlns="http://www.w3.org/2000/svg">
    <path d="M33.7951 9.5157C33.0245 7.68786 31.9058 6.0273 30.5014 4.62645C28.3755 2.50054 25.6731 1.04425 22.7285 0.437614C20.6846 0.0216092 18.5779 0.0216092 16.5341 0.437614C13.5866 1.04037 10.882 2.49786 8.75772 4.62816C7.3567 6.0305 6.2385 7.68925 5.46406 9.51399C4.66303 11.4079 4.25169 13.4437 4.25456 15.5L4.25627 15.5427H0.837891L5.96289 22.3333L11.0879 15.5427H7.67293L7.67122 15.5C7.66631 13.1175 8.37756 10.7885 9.71268 8.81528C10.5739 7.54203 11.6703 6.44499 12.9431 5.58311C14.238 4.71084 15.6903 4.09925 17.2191 3.78253C20.3258 3.14379 23.5589 3.76481 26.2079 5.50909C28.8568 7.25337 30.7047 9.97813 31.3453 13.0844C31.6676 14.6764 31.6676 16.3168 31.3453 17.9087C31.0328 19.4388 30.4208 20.892 29.5447 22.1847C29.1176 22.8185 28.6273 23.4147 28.0858 23.9545C26.9945 25.0445 25.7041 25.915 24.2848 26.5187C23.5618 26.8243 22.8105 27.0578 22.0417 27.2157C20.4503 27.5378 18.8105 27.5378 17.2191 27.2157C15.6906 26.9024 14.2389 26.2911 12.9466 25.4169C12.311 24.9874 11.7178 24.4983 11.175 23.9562L8.75943 26.3718C10.1861 27.8004 11.8806 28.9336 13.7459 29.7063C15.6112 30.479 17.6106 30.8762 19.6296 30.875C21.6848 30.8741 23.7192 30.4635 25.6138 29.6672C28.3602 28.5052 30.7099 26.5704 32.3771 24.098C34.0931 21.5593 35.0083 18.5643 35.0046 15.5C35.0088 13.4441 34.5974 11.4086 33.7951 9.5157Z" fill="#B72F2F" />
</svg>