<svg width="42" height="41" viewBox="0 0 42 41" fill="none" xmlns="http://www.w3.org/2000/svg">
    <path d="M0.291016 0V41H41.8672V0H0.291016ZM24.6242 30.6036C24.0117 30.8781 21.5431 31.1527 19.984 29.304C19.1302 28.3339 17.6361 26.2565 16.0677 23.4835C15.2417 23.4835 14.7035 23.4835 14.0817 23.4286V27.675C14.0817 29.8257 14.6385 29.6152 16.476 29.8623V30.6036C15.8357 30.5761 14.3323 30.5304 13.1722 30.5304C11.9565 30.5304 10.75 30.5853 10.054 30.6036V29.8623C11.4925 29.5969 12.0957 29.7433 12.0957 27.675V17.6629C12.0957 15.5946 11.5017 15.7411 10.054 15.4757V14.7344C12.4483 14.8259 14.9819 14.6795 16.6338 14.6795C19.5757 14.6795 21.8215 15.9973 21.8215 18.8527C21.8215 20.7837 20.2717 22.7147 18.1836 23.1998C19.4458 25.4145 20.9677 27.373 22.0999 28.5902C22.7681 29.304 23.6962 29.9355 24.6242 29.9355V30.6036ZM15.9378 22.3395C15.0654 22.3395 14.6756 22.3121 14.0817 22.2663V15.8875C14.6756 15.8326 15.4737 15.8326 16.1698 15.8326C18.3321 15.8326 19.6221 16.9491 19.6221 18.99C19.6221 20.9942 18.23 22.3395 15.9378 22.3395Z" fill="#B72F2F" />
</svg>