<svg width="31" height="41" viewBox="0 0 31 41" fill="none" xmlns="http://www.w3.org/2000/svg">
    <path fill-rule="evenodd" clip-rule="evenodd" d="M0.0366214 39.7188V5.125C0.0366214 3.76577 0.576575 2.4622 1.5377 1.50108C2.49882 0.539954 3.80239 0 5.16162 0L25.6616 0C27.0209 0 28.3244 0.539954 29.2855 1.50108C30.2467 2.4622 30.7866 3.76577 30.7866 5.125V39.7188C30.7868 39.9412 30.729 40.1599 30.619 40.3533C30.5089 40.5467 30.3504 40.7081 30.1591 40.8216C29.9677 40.9351 29.7501 40.9969 29.5277 41.0007C29.3052 41.0046 29.0856 40.9505 28.8904 40.8437L15.4116 33.4893L1.93287 40.8437C1.73768 40.9505 1.51805 41.0046 1.29559 41.0007C1.07313 40.9969 0.855511 40.9351 0.664156 40.8216C0.472801 40.7081 0.314305 40.5467 0.204272 40.3533C0.0942377 40.1599 0.0364586 39.9412 0.0366214 39.7188ZM22.725 15.0009C22.9656 14.7603 23.1007 14.434 23.1007 14.0938C23.1007 13.7535 22.9656 13.4272 22.725 13.1866C22.4844 12.946 22.1581 12.8109 21.8179 12.8109C21.4776 12.8109 21.1513 12.946 20.9107 13.1866L14.1304 19.9696L11.1937 17.0304C11.0746 16.9112 10.9332 16.8168 10.7776 16.7523C10.6219 16.6878 10.4551 16.6546 10.2866 16.6546C10.1182 16.6546 9.95133 16.6878 9.79569 16.7523C9.64004 16.8168 9.49862 16.9112 9.3795 17.0304C9.26037 17.1495 9.16588 17.2909 9.10141 17.4466C9.03694 17.6022 9.00375 17.769 9.00375 17.9375C9.00375 18.106 9.03694 18.2728 9.10141 18.4284C9.16588 18.5841 9.26037 18.7255 9.3795 18.8446L13.2232 22.6884C13.3423 22.8077 13.4837 22.9024 13.6393 22.967C13.795 23.0315 13.9618 23.0648 14.1304 23.0648C14.2989 23.0648 14.4658 23.0315 14.6214 22.967C14.7771 22.9024 14.9185 22.8077 15.0375 22.6884L22.725 15.0009Z" fill="#B72F2F" />
</svg>