<svg width="42" height="41" viewBox="0 0 42 41" fill="none" xmlns="http://www.w3.org/2000/svg">
    <path d="M40.864 35.4474L32.8795 27.4644C32.5191 27.104 32.0306 26.9038 31.5181 26.9038H30.2129C32.423 24.0771 33.7363 20.5224 33.7363 16.6546C33.7363 7.45447 26.2802 0 17.0792 0C7.87826 0 0.421387 7.45447 0.421387 16.6546C0.421387 25.8548 7.87746 33.3093 17.0792 33.3093C20.947 33.3093 24.5033 31.996 27.33 29.7859V31.0911C27.33 31.6036 27.5302 32.0921 27.8906 32.4525L35.8752 40.4355C36.6279 41.1882 37.8451 41.1882 38.5898 40.4355L40.856 38.1692C41.6088 37.4165 41.6088 36.2001 40.864 35.4474ZM17.0792 28.1843C10.7098 28.1843 5.54799 23.0321 5.54799 16.6546C5.54799 10.286 10.701 5.125 17.0792 5.125C23.4487 5.125 28.6105 10.2772 28.6105 16.6546C28.6105 23.0233 23.4575 28.1843 17.0792 28.1843ZM17.0808 8.96875C13.8153 8.96875 11.1679 11.6153 11.1679 14.8809C11.1679 17.5203 15.0324 22.3322 16.5131 24.0787C16.5825 24.1618 16.6694 24.2286 16.7675 24.2745C16.8656 24.3204 16.9725 24.3441 17.0808 24.3441C17.1891 24.3441 17.2961 24.3204 17.3942 24.2745C17.4923 24.2286 17.5791 24.1618 17.6486 24.0787C19.1292 22.3322 22.9938 17.5211 22.9938 14.8809C22.9938 11.6153 20.3464 8.96875 17.0808 8.96875ZM17.0808 16.6562C16.019 16.6562 15.159 15.7954 15.159 14.7344C15.159 13.6725 16.0198 12.8125 17.0808 12.8125C18.1419 12.8125 19.0027 13.6725 19.0027 14.7344C19.0027 15.7954 18.1419 16.6562 17.0808 16.6562Z" fill="#B72F2F" />
</svg>